# xmcd
#
# Track frame offsets:
#	150
#	28106
#	49084
#	71684
#
# Disc length: 1202 seconds
# Revision: 0
# Processed by: cddbd v1.5.2PL0 Copyright (c) Steve Scherf et al.
# Submitted via: dBpowerAMP V12.0
#
DISCID=3204b004
DTITLE=Aerosmith - Nine lives [CD single)
DYEAR=1997
DGENRE=Rock
TTITLE0=HOLE IN MY SOUL
TTITLE1=FALLING IN LOVE(IS HRAD ON KNEES)-BUTCHER MIX
TTITLE2=FALLING IN LOVE(IS HARD ON KNEES)-MOBY FLAWED MIX
TTITLE3=NINE LIVES
EXTD=
EXTT0=
EXTT1=
EXTT2=
EXTT3=
PLAYORDER=
